<?xml version="1.0" encoding="UTF-8"?>
<svg id="Layer_2" data-name="Layer 2" xmlns="http://www.w3.org/2000/svg" viewBox="0 0 111.03 77.35">
  <defs>
    <style>
      .cls-1 {
        fill: #006837;
      }

      .cls-2 {
        fill: #f15a24;
      }

      .cls-3 {
        fill: #fcee21;
      }

      .cls-4 {
        fill: #2e3192;
      }
    </style>
  </defs>
  <g id="Layer_2-2" data-name="Layer 2">
    <g>
      <g>
        <path d="M103.63,58.84C103.63-5.33,7.38-5.33,7.38,58.84v-10.71c0-64.17,96.25-64.17,96.25,0v10.71Z"/>
        <rect x="7.38" y="40.33" width="13.15" height="37.02" rx="6.57" ry="6.57"/>
        <path d="M5.26,71.52c0,1.4-5.26-2.02-5.26-4.51v-16.39c0-2.49,5.26-5.74,5.26-4.51"/>
        <rect x="90.5" y="40.33" width="13.15" height="37.02" rx="6.57" ry="6.57" transform="translate(194.15 117.68) rotate(-180)"/>
        <path d="M105.77,71.52c0,1.4,5.26-2.02,5.26-4.51v-16.39c0-2.49-5.26-5.74-5.26-4.51"/>
      </g>
      <rect class="cls-1" x="28.78" y="50.53" width="53.15" height="6.74" rx="3.11" ry="3.11"/>
      <rect class="cls-4" x="39.23" y="70.48" width="32.24" height="6.74" rx="3.11" ry="3.11"/>
      <rect class="cls-3" x="28.78" y="60.51" width="53.15" height="6.74" rx="3.11" ry="3.11"/>
      <rect class="cls-2" x="35.77" y="40.56" width="39.17" height="6.74" rx="3.11" ry="3.11"/>
    </g>
  </g>
</svg>